<svg width="24" height="24" viewBox="0 0 24 24" fill="none" xmlns="http://www.w3.org/2000/svg">
<path fill-rule="evenodd" clip-rule="evenodd" d="M16.9998 4.5C16.4998 4.5 16.1665 4.83333 16.1665 5.33333V18.6667C16.1665 19.1667 16.4998 19.5 16.9998 19.5C17.4998 19.5 17.8332 19.1667 17.8332 18.6667V5.33333C17.8332 4.83333 17.4998 4.5 16.9998 4.5ZM11.9998 9.5C12.4998 9.5 12.8332 9.83333 12.8332 10.3333V18.6667C12.8332 19.1667 12.4998 19.5 11.9998 19.5C11.4998 19.5 11.1665 19.1667 11.1665 18.6667V10.3333C11.1665 9.83333 11.4998 9.5 11.9998 9.5ZM6.1665 15.3333C6.1665 14.8333 6.49984 14.5 6.99984 14.5C7.49984 14.5 7.83317 14.8333 7.83317 15.3333V18.6667C7.83317 19.1667 7.49984 19.5 6.99984 19.5C6.49984 19.5 6.1665 19.1667 6.1665 18.6667V15.3333Z" fill="#165153"/>
</svg>
