<svg width="28" height="30" viewBox="0 0 28 30" fill="none" xmlns="http://www.w3.org/2000/svg">
<g filter="url(#filter0_d)">
<path d="M23.4105 2.58638C22.6287 1.8045 21.3565 1.80458 20.5747 2.58638L15.2023 7.95871L15.0873 7.84367C14.0882 6.84457 12.4951 6.74695 11.3816 7.61675L4.23392 13.1993C4.09927 13.3044 4.01618 13.4623 4.00575 13.6329C3.99532 13.8034 4.05849 13.9703 4.17931 14.0911L11.9135 21.8253C12.0257 21.9375 12.1776 22 12.3352 22C12.3473 22 12.3595 21.9996 12.3717 21.9989C12.5422 21.9884 12.7001 21.9053 12.8053 21.7707L18.3878 14.623C19.2575 13.5095 19.1599 11.9164 18.1608 10.9173L18.0382 10.7946L23.4105 5.42219C24.1923 4.64036 24.1923 3.36821 23.4105 2.58638ZM12.2802 20.5049L10.5414 18.7661L12.6792 16.4138C12.9008 16.17 12.8828 15.7928 12.639 15.5712C12.3952 15.3497 12.018 15.3677 11.7965 15.6115L9.69691 17.9216L8.08297 16.3077L10.3931 14.2081C10.6369 13.9865 10.6549 13.6093 10.4334 13.3656C10.2118 13.1219 9.83464 13.1038 9.59082 13.3253L7.23852 15.4632L5.49966 13.7244L11.1428 9.31687L16.6878 14.8618L12.2802 20.5049ZM17.4476 13.8887L17.4274 13.9146L12.09 8.57706L12.1159 8.55687C12.7552 8.05746 13.6701 8.11351 14.2438 8.68718L14.7805 9.22394L16.7729 11.2163L17.3173 11.7607C17.891 12.3344 17.947 13.2492 17.4476 13.8887ZM22.567 4.57868L17.1947 9.95105L16.0458 8.80218L21.4182 3.42985C21.7349 3.11309 22.2503 3.11317 22.567 3.42985C22.8838 3.74661 22.8838 4.26192 22.567 4.57868Z" fill="#C0C1C1"/>
</g>
<defs>
<filter id="filter0_d" x="-2" y="0" width="32" height="32" filterUnits="userSpaceOnUse" color-interpolation-filters="sRGB">
<feFlood flood-opacity="0" result="BackgroundImageFix"/>
<feColorMatrix in="SourceAlpha" type="matrix" values="0 0 0 0 0 0 0 0 0 0 0 0 0 0 0 0 0 0 127 0"/>
<feOffset dy="4"/>
<feGaussianBlur stdDeviation="2"/>
<feColorMatrix type="matrix" values="0 0 0 0 0 0 0 0 0 0 0 0 0 0 0 0 0 0 0.25 0"/>
<feBlend mode="normal" in2="BackgroundImageFix" result="effect1_dropShadow"/>
<feBlend mode="normal" in="SourceGraphic" in2="effect1_dropShadow" result="shape"/>
</filter>
</defs>
</svg>
