<svg width="18" height="18" viewBox="0 0 18 18" fill="none" xmlns="http://www.w3.org/2000/svg">
<path d="M16.0578 1.93978C15.4714 1.35338 14.5173 1.35344 13.931 1.93978L9.90168 5.96903L9.8154 5.88275C9.06608 5.13343 7.8713 5.06021 7.03613 5.71257L1.67538 9.89946C1.57439 9.97833 1.51208 10.0967 1.50425 10.2247C1.49643 10.3526 1.5438 10.4777 1.63442 10.5683L7.43507 16.369C7.51921 16.4531 7.63311 16.5 7.75133 16.5C7.76041 16.5 7.76955 16.4997 7.77869 16.4992C7.9066 16.4913 8.02502 16.429 8.10388 16.328L12.2908 10.9673C12.943 10.1321 12.8699 8.93729 12.1206 8.18797L12.0286 8.09598L16.0578 4.06664C16.6442 3.48027 16.6442 2.52616 16.0578 1.93978ZM7.71011 15.3787L6.40596 14.0745L8.00937 12.3103C8.17552 12.1275 8.16201 11.8446 7.9792 11.6784C7.79636 11.5123 7.51344 11.5258 7.34729 11.7086L5.77262 13.4412L4.56217 12.2308L6.29478 10.6561C6.47759 10.4899 6.4911 10.207 6.32495 10.0242C6.15875 9.84139 5.87592 9.82783 5.69305 9.994L3.92883 11.5974L2.62468 10.2933L6.85707 6.98765L11.0158 11.1463L7.71011 15.3787ZM11.5857 10.4165L11.5705 10.4359L7.56743 6.4328L7.58685 6.41765C8.06635 6.04309 8.75252 6.08513 9.18277 6.51539L9.58534 6.91795L11.0796 8.41221L11.4879 8.82052C11.9182 9.2508 11.9602 9.93693 11.5857 10.4165ZM15.4252 3.43401L11.3959 7.46328L10.5343 6.60164L14.5636 2.57239C14.8011 2.33482 15.1877 2.33488 15.4252 2.57239C15.6628 2.80996 15.6628 3.19644 15.4252 3.43401Z" fill="#165153"/>
</svg>
