<svg width="20" height="20" viewBox="0 0 20 20" fill="none" xmlns="http://www.w3.org/2000/svg">
<path fill-rule="evenodd" clip-rule="evenodd" d="M10.0002 0.833008C4.91683 0.833008 0.833496 4.91634 0.833496 9.99967C0.833496 15.083 4.91683 19.1663 10.0002 19.1663C15.0835 19.1663 19.1668 15.083 19.1668 9.99967C19.1668 4.91634 15.0835 0.833008 10.0002 0.833008ZM10.0002 17.4997C5.8335 17.4997 2.50016 14.1663 2.50016 9.99967C2.50016 5.83301 5.8335 2.49967 10.0002 2.49967C14.1668 2.49967 17.5002 5.83301 17.5002 9.99967C17.5002 14.1663 14.1668 17.4997 10.0002 17.4997ZM13.0835 13.083C13.4168 12.7497 13.4168 12.2497 13.0835 11.9163L10.8335 9.66634V4.99967C10.8335 4.49967 10.5002 4.16634 10.0002 4.16634C9.50016 4.16634 9.16683 4.49967 9.16683 4.99967V9.99967C9.16683 10.2497 9.25016 10.4163 9.41683 10.583L11.9168 13.083C12.0835 13.2497 12.2502 13.333 12.5002 13.333C12.7502 13.333 12.9168 13.2497 13.0835 13.083Z" fill="#165153"/>
</svg>
