<svg width="20" height="20" viewBox="0 0 20 20" fill="none" xmlns="http://www.w3.org/2000/svg">
<path fill-rule="evenodd" clip-rule="evenodd" d="M3.33325 0.833252H16.6666C18.0833 0.833252 19.1666 1.91659 19.1666 3.33325V6.66659C19.1666 8.08325 18.0833 9.16658 16.6666 9.16658H3.33325C1.91659 9.16658 0.833252 8.08325 0.833252 6.66659V3.33325C0.833252 1.91659 1.91659 0.833252 3.33325 0.833252ZM16.6666 7.49992C17.1666 7.49992 17.4999 7.16658 17.4999 6.66658V3.33325C17.4999 2.83325 17.1666 2.49992 16.6666 2.49992H3.33325C2.83325 2.49992 2.49992 2.83325 2.49992 3.33325V6.66658C2.49992 7.16658 2.83325 7.49992 3.33325 7.49992H16.6666ZM16.6666 10.8333H3.33325C1.91659 10.8333 0.833252 11.9166 0.833252 13.3333V16.6666C0.833252 18.0833 1.91659 19.1666 3.33325 19.1666H16.6666C18.0833 19.1666 19.1666 18.0833 19.1666 16.6666V13.3333C19.1666 11.9166 18.0833 10.8333 16.6666 10.8333ZM16.6666 17.4999C17.1666 17.4999 17.4999 17.1666 17.4999 16.6666V13.3333C17.4999 12.8333 17.1666 12.4999 16.6666 12.4999H3.33325C2.83325 12.4999 2.49992 12.8333 2.49992 13.3333V16.6666C2.49992 17.1666 2.83325 17.4999 3.33325 17.4999H16.6666ZM5.58325 4.41659C5.74992 4.58325 5.83325 4.74992 5.83325 4.99992C5.83325 5.24992 5.74992 5.41659 5.58325 5.58325C5.41658 5.74992 5.24992 5.83325 4.99992 5.83325C4.74992 5.83325 4.58325 5.74992 4.41659 5.58325C4.33325 5.49992 4.24992 5.41659 4.24992 5.33325C4.16659 5.24992 4.16659 5.08325 4.16659 4.99992C4.16659 4.91659 4.16659 4.74992 4.24992 4.66659C4.29159 4.62492 4.31242 4.58325 4.33325 4.54159C4.35409 4.49992 4.37492 4.45825 4.41659 4.41659C4.49992 4.33325 4.58325 4.24992 4.66659 4.24992C4.91658 4.16659 5.08325 4.16659 5.33325 4.24992C5.41658 4.24992 5.49992 4.33325 5.58325 4.41659ZM5.83325 14.9999C5.83325 14.7499 5.74992 14.5833 5.58325 14.4166C5.24992 14.0833 4.74992 14.0833 4.41659 14.4166C4.37492 14.4583 4.35409 14.4999 4.33325 14.5416C4.31242 14.5833 4.29159 14.6249 4.24992 14.6666C4.16659 14.7499 4.16659 14.9166 4.16659 14.9999C4.16659 15.2499 4.24992 15.4166 4.41659 15.5833C4.58325 15.7499 4.74992 15.8333 4.99992 15.8333C5.24992 15.8333 5.41658 15.7499 5.58325 15.5833C5.74992 15.4166 5.83325 15.2499 5.83325 14.9999Z" fill="#C0C1C1"/>
</svg>
