<svg width="18" height="18" viewBox="0 0 18 18" fill="none" xmlns="http://www.w3.org/2000/svg">
<path fill-rule="evenodd" clip-rule="evenodd" d="M1.50008 0.666748H7.33341C7.83341 0.666748 8.16675 1.00008 8.16675 1.50008V7.33341C8.16675 7.83341 7.83341 8.16675 7.33341 8.16675H1.50008C1.00008 8.16675 0.666748 7.83341 0.666748 7.33341V1.50008C0.666748 1.00008 1.00008 0.666748 1.50008 0.666748ZM2.33341 6.50008H6.50008V2.33341H2.33341V6.50008ZM16.5001 0.666748H10.6667C10.1667 0.666748 9.83342 1.00008 9.83342 1.50008V7.33341C9.83342 7.83341 10.1667 8.16675 10.6667 8.16675H16.5001C17.0001 8.16675 17.3334 7.83341 17.3334 7.33341V1.50008C17.3334 1.00008 17.0001 0.666748 16.5001 0.666748ZM11.5001 6.50008H15.6667V2.33341H11.5001V6.50008ZM16.5001 9.83342H10.6667C10.1667 9.83342 9.83342 10.1667 9.83342 10.6667V16.5001C9.83342 17.0001 10.1667 17.3334 10.6667 17.3334H16.5001C17.0001 17.3334 17.3334 17.0001 17.3334 16.5001V10.6667C17.3334 10.1667 17.0001 9.83342 16.5001 9.83342ZM11.5001 15.6667H15.6667V11.5001H11.5001V15.6667ZM7.33341 9.83342H1.50008C1.00008 9.83342 0.666748 10.1667 0.666748 10.6667V16.5001C0.666748 17.0001 1.00008 17.3334 1.50008 17.3334H7.33341C7.83341 17.3334 8.16675 17.0001 8.16675 16.5001V10.6667C8.16675 10.1667 7.83341 9.83342 7.33341 9.83342ZM2.33341 15.6667H6.50008V11.5001H2.33341V15.6667Z" fill="#165153"/>
</svg>
