<svg width="24" height="24" viewBox="0 0 24 24" fill="none" xmlns="http://www.w3.org/2000/svg">
<path d="M17.5833 16.4166C17.9166 16.75 17.9166 17.25 17.5833 17.5833C17.4166 17.75 17.25 17.8333 17 17.8333C16.75 17.8333 16.5833 17.75 16.4166 17.5833L12 13.1666L7.58329 17.5833C7.41663 17.75 7.24996 17.8333 6.99996 17.8333C6.74996 17.8333 6.58329 17.75 6.41663 17.5833C6.08329 17.25 6.08329 16.75 6.41663 16.4166L10.8333 12L6.41663 7.58329C6.08329 7.24996 6.08329 6.74996 6.41663 6.41663C6.74996 6.08329 7.24996 6.08329 7.58329 6.41663L12 10.8333L16.4166 6.41663C16.75 6.08329 17.25 6.08329 17.5833 6.41663C17.9166 6.74996 17.9166 7.24996 17.5833 7.58329L13.1666 12L17.5833 16.4166Z" fill="#263238"/>
</svg>
