<svg width="32" height="32" viewBox="0 0 32 32" fill="none" xmlns="http://www.w3.org/2000/svg">
<rect x="0.5" y="0.5" width="31" height="31" rx="4.5" fill="white" stroke="#E0E0E0"/>
<path d="M23.0578 8.93978C22.4714 8.35338 21.5173 8.35344 20.931 8.93978L16.9017 12.969L16.8154 12.8828C16.0661 12.1334 14.8713 12.0602 14.0361 12.7126L8.67538 16.8995C8.57439 16.9783 8.51208 17.0967 8.50425 17.2247C8.49643 17.3526 8.5438 17.4777 8.63442 17.5683L14.4351 23.369C14.5192 23.4531 14.6331 23.5 14.7513 23.5C14.7604 23.5 14.7695 23.4997 14.7787 23.4992C14.9066 23.4913 15.025 23.429 15.1039 23.328L19.2908 17.9673C19.943 17.1321 19.8699 15.9373 19.1206 15.188L19.0286 15.096L23.0578 11.0666C23.6442 10.4803 23.6442 9.52616 23.0578 8.93978ZM14.7101 22.3787L13.406 21.0745L15.0094 19.3103C15.1755 19.1275 15.162 18.8446 14.9792 18.6784C14.7964 18.5123 14.5134 18.5258 14.3473 18.7086L12.7726 20.4412L11.5622 19.2308L13.2948 17.6561C13.4776 17.4899 13.4911 17.207 13.325 17.0242C13.1588 16.8414 12.8759 16.8278 12.6931 16.994L10.9288 18.5974L9.62468 17.2933L13.8571 13.9877L18.0158 18.1463L14.7101 22.3787ZM18.5857 17.4165L18.5705 17.4359L14.5674 13.4328L14.5869 13.4177C15.0664 13.0431 15.7525 13.0851 16.1828 13.5154L16.5853 13.918L18.0796 15.4122L18.4879 15.8205C18.9182 16.2508 18.9602 16.9369 18.5857 17.4165ZM22.4252 10.434L18.3959 14.4633L17.5343 13.6016L21.5636 9.57239C21.8011 9.33482 22.1877 9.33488 22.4252 9.57239C22.6628 9.80996 22.6628 10.1964 22.4252 10.434Z" fill="#165153"/>
</svg>
