<svg width="56" height="56" viewBox="0 0 56 56" fill="none" xmlns="http://www.w3.org/2000/svg">
<path d="M55.7777 27.9999C55.7777 30.0833 54.3888 31.4722 52.3055 31.4722H31.4722V52.3055C31.4722 54.3888 30.0833 55.7777 28 55.7777C25.9166 55.7777 24.5277 54.3888 24.5277 52.3055V31.4722H3.69439C1.61106 31.4722 0.222168 30.0833 0.222168 27.9999C0.222168 25.9166 1.61106 24.5277 3.69439 24.5277H24.5277V3.69439C24.5277 1.61106 25.9166 0.222168 28 0.222168C30.0833 0.222168 31.4722 1.61106 31.4722 3.69439V24.5277H52.3055C54.3888 24.5277 55.7777 25.9166 55.7777 27.9999Z" fill="#A9BEDE"/>
</svg>
