<svg width="20" height="20" viewBox="0 0 20 20" fill="none" xmlns="http://www.w3.org/2000/svg">
<path d="M19.6031 8.13084C19.5099 8.03738 19.5099 8.03738 19.6031 8.13084L12.7077 3.17757C12.335 2.89719 11.7759 2.89719 11.31 3.17757L6.74414 6.35514L7.02368 6.54206C7.30322 6.72897 7.48959 6.91589 7.67595 7.19626L7.76913 7.38318L11.9623 4.39252L18.2053 8.87851H16.6213V17.757H7.02368L6.9305 19.0654H16.9008C17.5531 19.0654 18.019 18.5047 18.019 17.9439V10.2804H18.8576C19.3235 10.2804 19.7894 10 19.9758 9.43925C20.069 8.87851 19.8826 8.41122 19.6031 8.13084Z" fill="#165153"/>
<path d="M7.02349 14.5796C7.39621 14.5796 7.67575 14.3927 7.95529 14.2057C8.14165 13.9254 8.23484 13.5515 8.23484 13.2712L7.11667 7.8506C7.02349 7.28985 6.65077 6.91602 6.09168 6.91602H2.1781C1.61901 6.91602 1.24629 7.28985 1.15311 7.75714L0.0349427 13.2712C-0.0582379 13.645 0.0349427 13.9254 0.314485 14.2057C0.594026 14.4861 0.873568 14.5796 1.24629 14.5796H1.71219L1.99174 18.8786C2.08492 19.4394 2.55082 20.0001 3.1099 20.0001H5.06669C5.62578 20.0001 6.09168 19.5329 6.18486 18.9721V18.8786V18.7852L6.55758 14.5796H7.02349ZM4.13489 11.6824C4.50761 11.6824 4.78715 11.402 4.78715 11.0282V8.22443H5.90532L6.83713 13.2712H5.34624L4.88033 18.6917H3.29626L2.92354 13.4581V13.2712H1.43265L2.36446 8.22443H3.48262V11.0282C3.48262 11.402 3.76217 11.6824 4.13489 11.6824Z" fill="#165153"/>
<path d="M4.13494 6.26169C5.81219 6.26169 7.2099 4.85982 7.2099 3.17757C7.2099 1.49533 5.81219 0 4.13494 0C2.45769 0 0.966797 1.40187 0.966797 3.17757C0.966797 4.95328 2.45769 6.26169 4.13494 6.26169ZM2.36451 3.17757C2.36451 2.24299 3.20313 1.40187 4.13494 1.40187C5.06674 1.40187 5.90537 2.24299 5.90537 3.17757C5.90537 4.11215 5.06674 4.95328 4.13494 4.95328C3.20313 4.95328 2.36451 4.11215 2.36451 3.17757Z" fill="#165153"/>
</svg>
