<svg width="14" height="14" viewBox="0 0 14 14" fill="none" xmlns="http://www.w3.org/2000/svg">
<path d="M7.58942 0.578062L13.4228 6.4114C13.4465 6.43512 13.4688 6.46026 13.4895 6.48669L13.4228 6.4114C13.4522 6.44089 13.4791 6.47205 13.5032 6.50456C13.5181 6.52471 13.5321 6.54542 13.5451 6.56677C13.5513 6.57681 13.5572 6.58699 13.5629 6.59727C13.572 6.61374 13.5807 6.63074 13.5888 6.64807C13.5954 6.66224 13.6017 6.67665 13.6075 6.6912C13.6141 6.70767 13.6201 6.72415 13.6255 6.74087C13.6296 6.75328 13.6334 6.7661 13.637 6.77899C13.642 6.79695 13.6463 6.81503 13.65 6.83332C13.6529 6.84784 13.6555 6.86236 13.6576 6.87693C13.6602 6.89355 13.6622 6.91075 13.6637 6.9281C13.665 6.94376 13.6659 6.95876 13.6664 6.97377C13.6667 6.98214 13.6668 6.99138 13.6668 7.00065L13.6664 7.02836C13.6659 7.04281 13.665 7.05725 13.6638 7.07167L13.6668 7.00065C13.6668 7.04283 13.6637 7.08429 13.6576 7.12479C13.6555 7.13894 13.6529 7.15346 13.65 7.16792C13.6463 7.18627 13.642 7.20435 13.6371 7.22218C13.6334 7.2352 13.6296 7.24803 13.6254 7.26077C13.6201 7.27715 13.6141 7.29363 13.6076 7.30987C13.6017 7.32465 13.5954 7.33907 13.5888 7.35334C13.5807 7.37056 13.572 7.38756 13.5628 7.40422C13.5572 7.41431 13.5513 7.4245 13.5452 7.43458C13.5321 7.45588 13.5181 7.47659 13.5032 7.49662C13.4987 7.50282 13.4941 7.50885 13.4894 7.51484C13.4876 7.51704 13.4857 7.51945 13.4838 7.52186L13.4228 7.58991L7.58942 13.4232C7.26398 13.7487 6.73634 13.7487 6.41091 13.4232C6.08547 13.0978 6.08547 12.5702 6.41091 12.2447L10.821 7.83398H1.16683C0.706592 7.83398 0.333496 7.46089 0.333496 7.00065C0.333496 6.54041 0.706592 6.16732 1.16683 6.16732H10.821L6.41091 1.75657C6.08547 1.43114 6.08547 0.903499 6.41091 0.578062C6.73634 0.252625 7.26398 0.252625 7.58942 0.578062Z" fill="#263238"/>
</svg>
