<svg width="14" height="14" viewBox="0 0 14 14" fill="none" xmlns="http://www.w3.org/2000/svg">
<path d="M7.58893 0.578062C7.91437 0.903499 7.91437 1.43114 7.58893 1.75657L3.17801 6.16732H12.833C13.2932 6.16732 13.6663 6.54041 13.6663 7.00065C13.6663 7.46089 13.2932 7.83398 12.833 7.83398H3.17801L7.58893 12.2447C7.91437 12.5702 7.91437 13.0978 7.58893 13.4232C7.26349 13.7487 6.73586 13.7487 6.41042 13.4232L0.577085 7.58991L0.516082 7.52186C0.514151 7.51945 0.512234 7.51704 0.510329 7.51461L0.577085 7.58991C0.54759 7.56041 0.520769 7.52926 0.49662 7.49674C0.48175 7.47659 0.467773 7.45588 0.454731 7.43453C0.448514 7.4245 0.44259 7.41431 0.4369 7.40404C0.427836 7.38756 0.419155 7.37056 0.411053 7.35323C0.404407 7.33907 0.398171 7.32465 0.392362 7.3101C0.385771 7.29363 0.379777 7.27715 0.374297 7.26043C0.370282 7.24803 0.366423 7.2352 0.362879 7.22231C0.357869 7.20435 0.353541 7.18627 0.349812 7.16798C0.346926 7.15346 0.344365 7.13894 0.342189 7.12437C0.339759 7.1085 0.337798 7.09206 0.336322 7.07549C0.334587 7.05565 0.333537 7.03622 0.333163 7.01678C0.333059 7.01141 0.333008 7.00604 0.333008 7.00065L0.333147 6.98535C0.333507 6.96563 0.334562 6.94593 0.336313 6.92628L0.333008 7.00065C0.333008 6.95847 0.336142 6.91702 0.342191 6.87652C0.344365 6.86236 0.346926 6.84784 0.349875 6.83338C0.353541 6.81503 0.357869 6.79695 0.362775 6.77912C0.366423 6.7661 0.370282 6.75327 0.374456 6.74053C0.379777 6.72415 0.385771 6.70767 0.392261 6.69144C0.398171 6.67665 0.404407 6.66224 0.411069 6.64797C0.419155 6.63074 0.427836 6.61374 0.437071 6.59709C0.44259 6.58699 0.448514 6.57681 0.454671 6.56673C0.467773 6.54542 0.48175 6.52471 0.496602 6.50468C0.501136 6.49848 0.505745 6.49245 0.510448 6.48647C0.531065 6.46026 0.553364 6.43512 0.577085 6.4114L6.41042 0.578062C6.73586 0.252625 7.26349 0.252625 7.58893 0.578062Z" fill="#263238"/>
</svg>
