<svg width="16" height="20" viewBox="0 0 16 20" fill="none" xmlns="http://www.w3.org/2000/svg">
<path fill-rule="evenodd" clip-rule="evenodd" d="M15.3333 6.20825C15.3542 6.24992 15.375 6.29158 15.4167 6.33325C15.5 6.41659 15.5 6.58325 15.5 6.66659V16.6666C15.5 18.0833 14.4167 19.1666 13 19.1666H3C1.58333 19.1666 0.5 18.0833 0.5 16.6666V3.33325C0.5 1.91659 1.58333 0.833252 3 0.833252H9.66667C9.75 0.833252 9.91667 0.833252 10 0.916585C10.0833 0.916585 10.1667 0.999919 10.25 1.08325L15.25 6.08325C15.2917 6.12492 15.3125 6.16659 15.3333 6.20825ZM12.6667 5.83325L10.5 3.66659V5.83325H12.6667ZM13 17.4999H3C2.5 17.4999 2.16667 17.1666 2.16667 16.6666V3.33325C2.16667 2.83325 2.5 2.49992 3 2.49992H8.83333V6.66658C8.83333 7.16658 9.16667 7.49992 9.66667 7.49992H13.8333V16.6666C13.8333 17.1666 13.5 17.4999 13 17.4999ZM11.3333 11.6666C11.8333 11.6666 12.1667 11.3333 12.1667 10.8333C12.1667 10.3333 11.8333 9.99992 11.3333 9.99992H4.66667C4.16667 9.99992 3.83333 10.3333 3.83333 10.8333C3.83333 11.3333 4.16667 11.6666 4.66667 11.6666H11.3333ZM12.1667 14.1666C12.1667 14.6666 11.8333 14.9999 11.3333 14.9999H4.66667C4.16667 14.9999 3.83333 14.6666 3.83333 14.1666C3.83333 13.6666 4.16667 13.3333 4.66667 13.3333H11.3333C11.8333 13.3333 12.1667 13.6666 12.1667 14.1666ZM4.66667 6.66659C4.16667 6.66659 3.83333 6.99992 3.83333 7.49992C3.83333 7.99992 4.16667 8.33325 4.66667 8.33325H6.33333C6.83333 8.33325 7.16667 7.99992 7.16667 7.49992C7.16667 6.99992 6.83333 6.66659 6.33333 6.66659H4.66667Z" fill="#165153"/>
</svg>
