<svg width="24" height="24" viewBox="0 0 24 24" fill="none" xmlns="http://www.w3.org/2000/svg">
<path fill-rule="evenodd" clip-rule="evenodd" d="M6.16634 15.3333C6.66634 15.3333 6.99967 14.9999 6.99967 14.4999C6.99967 13.9999 6.66634 13.6666 6.16634 13.6666H5.33301C4.83301 13.6666 4.49967 13.3333 4.49967 12.8333V5.33325C4.49967 4.83325 4.83301 4.49992 5.33301 4.49992H12.833C13.333 4.49992 13.6663 4.83325 13.6663 5.33325V6.16659C13.6663 6.66659 13.9997 6.99992 14.4997 6.99992C14.9997 6.99992 15.333 6.66659 15.333 6.16659V5.33325C15.333 3.91659 14.2497 2.83325 12.833 2.83325H5.33301C3.91634 2.83325 2.83301 3.91659 2.83301 5.33325V12.8333C2.83301 14.2499 3.91634 15.3333 5.33301 15.3333H6.16634ZM18.6663 8.66659H11.1663C9.74967 8.66659 8.66634 9.74992 8.66634 11.1666V18.6666C8.66634 20.0833 9.74967 21.1666 11.1663 21.1666H18.6663C20.083 21.1666 21.1663 20.0833 21.1663 18.6666V11.1666C21.1663 9.74992 20.083 8.66659 18.6663 8.66659ZM19.4997 18.6666C19.4997 19.1666 19.1663 19.4999 18.6663 19.4999H11.1663C10.6663 19.4999 10.333 19.1666 10.333 18.6666V11.1666C10.333 10.6666 10.6663 10.3333 11.1663 10.3333H18.6663C19.1663 10.3333 19.4997 10.6666 19.4997 11.1666V18.6666Z" fill="#263238"/>
</svg>
