<svg width="18" height="18" viewBox="0 0 18 18" fill="none" xmlns="http://www.w3.org/2000/svg">
<path fill-rule="evenodd" clip-rule="evenodd" d="M13.3334 12.1667L17.0834 15.9167C17.4167 16.2501 17.4167 16.7501 17.0834 17.0834C16.9167 17.2501 16.6667 17.3334 16.5001 17.3334C16.3334 17.3334 16.0834 17.2501 15.9167 17.0834L12.1667 13.3334C10.9167 14.2501 9.41675 14.8334 7.75008 14.8334C3.83341 14.8334 0.666748 11.6667 0.666748 7.75008C0.666748 3.83341 3.83341 0.666748 7.75008 0.666748C11.6667 0.666748 14.8334 3.83341 14.8334 7.75008C14.8334 9.41675 14.2501 11.0001 13.3334 12.1667ZM7.75008 2.33341C4.75008 2.33341 2.33341 4.75008 2.33341 7.75008C2.33341 10.7501 4.75008 13.1667 7.75008 13.1667C9.25008 13.1667 10.5834 12.5834 11.5834 11.5834C12.5834 10.5834 13.1667 9.25008 13.1667 7.75008C13.1667 4.75008 10.7501 2.33341 7.75008 2.33341Z" fill="#165153"/>
</svg>
