<svg width="20" height="18" viewBox="0 0 20 18" fill="none" xmlns="http://www.w3.org/2000/svg">
<path fill-rule="evenodd" clip-rule="evenodd" d="M18.3333 0.666504H13.3333C12 0.666504 10.75 1.33317 9.99998 2.33317C9.24998 1.33317 7.99998 0.666504 6.66665 0.666504H1.66665C1.16665 0.666504 0.833313 0.999837 0.833313 1.49984V13.9998C0.833313 14.4998 1.16665 14.8332 1.66665 14.8332H7.49998C8.41665 14.8332 9.16665 15.5832 9.16665 16.4998C9.16665 16.9998 9.49998 17.3332 9.99998 17.3332C10.5 17.3332 10.8333 16.9998 10.8333 16.4998C10.8333 15.5832 11.5833 14.8332 12.5 14.8332H18.3333C18.8333 14.8332 19.1666 14.4998 19.1666 13.9998V1.49984C19.1666 0.999837 18.8333 0.666504 18.3333 0.666504ZM9.16665 13.5832C8.66665 13.3332 8.08331 13.1665 7.49998 13.1665H2.49998V2.33317H6.66665C8.08331 2.33317 9.16665 3.4165 9.16665 4.83317V13.5832ZM12.5 13.1665H17.5V2.33317H13.3333C11.9166 2.33317 10.8333 3.4165 10.8333 4.83317V13.5832C11.3333 13.3332 11.9166 13.1665 12.5 13.1665Z" fill="#165153"/>
</svg>
