<svg width="16" height="18" viewBox="0 0 16 18" fill="none" xmlns="http://www.w3.org/2000/svg">
<path fill-rule="evenodd" clip-rule="evenodd" d="M3.83333 4.83317C3.83333 2.49984 5.66667 0.666504 8 0.666504C10.3333 0.666504 12.1667 2.49984 12.1667 4.83317C12.1667 7.1665 10.3333 8.99984 8 8.99984C5.66667 8.99984 3.83333 7.1665 3.83333 4.83317ZM15.5 14.8332V16.4998C15.5 16.9998 15.1667 17.3332 14.6667 17.3332C14.1667 17.3332 13.8333 16.9998 13.8333 16.4998V14.8332C13.8333 13.4165 12.75 12.3332 11.3333 12.3332H4.66667C3.25 12.3332 2.16667 13.4165 2.16667 14.8332V16.4998C2.16667 16.9998 1.83333 17.3332 1.33333 17.3332C0.833333 17.3332 0.5 16.9998 0.5 16.4998V14.8332C0.5 12.4998 2.33333 10.6665 4.66667 10.6665H11.3333C13.6667 10.6665 15.5 12.4998 15.5 14.8332ZM8 7.33317C6.58333 7.33317 5.5 6.24984 5.5 4.83317C5.5 3.4165 6.58333 2.33317 8 2.33317C9.41667 2.33317 10.5 3.4165 10.5 4.83317C10.5 6.24984 9.41667 7.33317 8 7.33317Z" fill="#165153"/>
</svg>
