<svg width="24" height="24" viewBox="0 0 24 24" fill="none" xmlns="http://www.w3.org/2000/svg">
<path fill-rule="evenodd" clip-rule="evenodd" d="M21.1668 8.91667V9.08333V14.9167V15.0833C21.1363 15.1138 21.117 15.1443 21.0925 15.183C21.05 15.25 20.992 15.3415 20.8335 15.5C20.7502 15.5 20.6668 15.5833 20.5835 15.6667L20.5835 15.6667L12.2502 21.0833H12.1668H12.0835C12.0002 21.1667 11.9168 21.1667 11.8335 21.1667C11.7918 21.1667 11.7502 21.1458 11.7085 21.125C11.6668 21.1042 11.6252 21.0833 11.5835 21.0833H11.5002H11.4168L3.0835 15.6667C3.03199 15.6667 3.01232 15.6348 2.98513 15.5908C2.96833 15.5637 2.94866 15.5318 2.91683 15.5C2.91683 15.4583 2.896 15.4167 2.87516 15.375C2.85433 15.3333 2.8335 15.2917 2.8335 15.25V15.1667V15V9.16667V9V8.91667C2.885 8.86516 2.90467 8.81366 2.93186 8.74249C2.94866 8.6985 2.96833 8.64699 3.00016 8.58333C3.0835 8.5 3.16683 8.41667 3.3335 8.41667L11.6668 3H11.7502H11.8335C12.0002 2.91667 12.2502 2.91667 12.4168 3H12.5002H12.5835L20.9168 8.41667C20.9683 8.41667 20.988 8.4485 21.0152 8.49249C21.032 8.51967 21.0517 8.5515 21.0835 8.58333C21.0835 8.625 21.1043 8.66667 21.1252 8.70833C21.146 8.75 21.1668 8.79167 21.1668 8.83333V8.91667ZM6.41683 12L4.50016 10.6667V13.3333L6.41683 12ZM12.0002 13.9167L9.25016 12L12.0002 10.0833L14.7502 12L12.0002 13.9167ZM12.8335 5.16667V8.66667L16.1668 11L18.8335 9.08333L12.8335 5.16667ZM11.1668 8.66667L7.8335 11L5.16683 9.08333L11.1668 5.16667V8.66667ZM11.1668 15.3333L7.8335 13L5.16683 14.8333L11.1668 18.75V15.3333ZM12.8335 15.3333L16.1668 13L18.8335 14.8333L12.8335 18.8333V15.3333ZM19.5002 10.6667L17.5835 12L19.5002 13.3333V10.6667Z" fill="#165153"/>
</svg>
