<svg width="24" height="24" viewBox="0 0 24 24" fill="none" xmlns="http://www.w3.org/2000/svg">
<path fill-rule="evenodd" clip-rule="evenodd" d="M19.5 4.5H4.5C3.08333 4.5 2 5.58333 2 7V17C2 18.4167 3.08333 19.5 4.5 19.5H19.5C20.9167 19.5 22 18.4167 22 17V7C22 5.58333 20.9167 4.5 19.5 4.5ZM4.5 6.16667H19.5C20 6.16667 20.3333 6.5 20.3333 7V9.5H3.66667V7C3.66667 6.5 4 6.16667 4.5 6.16667ZM4.5 17.8333H19.5C20 17.8333 20.3333 17.5 20.3333 17V11.1667H3.66667V17C3.66667 17.5 4 17.8333 4.5 17.8333Z" fill="#165153"/>
</svg>
