<svg width="100" height="100" viewBox="0 0 100 100" fill="none" xmlns="http://www.w3.org/2000/svg">
<circle cx="50" cy="50" r="49" fill="#EEEEEE" stroke="white" stroke-width="2"/>
<path fill-rule="evenodd" clip-rule="evenodd" d="M60.6667 35.333H37.3334C34.5 35.333 32.3334 37.4997 32.3334 40.333V63.6663C32.3334 66.4997 34.5 68.6663 37.3334 68.6663H60.6667C63.5 68.6663 65.6667 66.4997 65.6667 63.6663V40.333C65.6667 37.4997 63.5 35.333 60.6667 35.333ZM35.6668 40.333C35.6668 39.333 36.3335 38.6663 37.3335 38.6663H60.6668C61.6668 38.6663 62.3335 39.333 62.3335 40.333V52.9996L56.8335 47.4996C56.1668 46.833 55.1668 46.833 54.5001 47.4996L36.8335 65.1663C36.1668 64.9996 35.6668 64.333 35.6668 63.6663V40.333ZM41.3334 65.3331H60.6667C61.6667 65.3331 62.3334 64.6664 62.3334 63.6664V57.6664L55.6667 50.9997L41.3334 65.3331ZM43.1666 50.333C45.5 50.333 47.3333 48.4997 47.3333 46.1664C47.3333 43.833 45.5 41.9997 43.1666 41.9997C40.8333 41.9997 39 43.833 39 46.1664C39 48.4997 40.8333 50.333 43.1666 50.333ZM44 46.1663C44 45.6663 43.6667 45.333 43.1667 45.333C42.6667 45.333 42.3334 45.6663 42.3334 46.1663C42.3334 46.6663 42.6667 46.9997 43.1667 46.9997C43.6667 46.9997 44 46.6663 44 46.1663Z" fill="white"/>
</svg>
