<svg width="24" height="24" viewBox="0 0 24 24" fill="none" xmlns="http://www.w3.org/2000/svg">
<path fill-rule="evenodd" clip-rule="evenodd" d="M19.4167 9.16634C19.375 9.12467 19.3542 9.08301 19.3333 9.04134C19.3125 8.99967 19.2917 8.95801 19.25 8.91634L13.4167 3.08301C13.3333 2.99967 13.25 2.91634 13.1667 2.91634C13.0833 2.83301 12.9167 2.83301 12.8333 2.83301H7C5.58333 2.83301 4.5 3.91634 4.5 5.33301V18.6663C4.5 20.083 5.58333 21.1663 7 21.1663H17C18.4167 21.1663 19.5 20.083 19.5 18.6663V9.49967C19.5 9.41634 19.5 9.24967 19.4167 9.16634ZM13.6667 5.66634L16.6667 8.66634H13.6667V5.66634ZM7 19.4997H17C17.5 19.4997 17.8333 19.1663 17.8333 18.6663V10.333H12.8333C12.3333 10.333 12 9.99967 12 9.49967V4.49967H7C6.5 4.49967 6.16667 4.83301 6.16667 5.33301V18.6663C6.16667 19.1663 6.5 19.4997 7 19.4997Z" fill="#165153"/>
</svg>
