<svg width="18" height="20" viewBox="0 0 18 20" fill="none" xmlns="http://www.w3.org/2000/svg">
<path fill-rule="evenodd" clip-rule="evenodd" d="M7.34176 19.1666C7.84238 19.1666 8.17614 18.8333 8.17614 18.3333C8.17614 17.8333 7.84238 17.4999 7.34176 17.4999H3.16988C2.66925 17.4999 2.3355 17.1666 2.3355 16.6666V3.33325C2.3355 2.83325 2.66925 2.49992 3.16988 2.49992H7.34176C7.84238 2.49992 8.17614 2.16659 8.17614 1.66659C8.17614 1.16659 7.84238 0.833252 7.34176 0.833252H3.16988C1.75144 0.833252 0.666748 1.91659 0.666748 3.33325V16.6666C0.666748 18.0833 1.75144 19.1666 3.16988 19.1666H7.34176ZM17.2708 9.66658C17.3543 9.91658 17.3543 10.1666 17.2708 10.3333C17.2708 10.4166 17.1874 10.4999 17.104 10.5833L13.7665 13.9166C13.5996 14.0833 13.3493 14.1666 13.1824 14.1666C13.0155 14.1666 12.7652 14.0833 12.5983 13.9166C12.2646 13.5833 12.2646 13.0833 12.5983 12.7499L14.5174 10.8333H6.50738C6.00676 10.8333 5.67301 10.4999 5.67301 9.99992C5.67301 9.49992 6.00676 9.16658 6.50738 9.16658H14.5174L12.5983 7.24992C12.2646 6.91659 12.2646 6.41659 12.5983 6.08325C12.9321 5.74992 13.4327 5.74992 13.7665 6.08325L17.104 9.41658C17.1457 9.45825 17.1665 9.49992 17.1874 9.54158C17.2083 9.58325 17.2291 9.62492 17.2708 9.66658Z" fill="#263238"/>
</svg>
