<svg width="15" height="14" viewBox="0 0 15 14" fill="none" xmlns="http://www.w3.org/2000/svg">
<path d="M14.2222 7.00004C14.2222 7.50004 13.8889 7.83337 13.3889 7.83337H8.38892V12.8334C8.38892 13.3334 8.05558 13.6667 7.55558 13.6667C7.05558 13.6667 6.72225 13.3334 6.72225 12.8334V7.83337H1.72225C1.22225 7.83337 0.888916 7.50004 0.888916 7.00004C0.888916 6.50004 1.22225 6.16671 1.72225 6.16671H6.72225V1.16671C6.72225 0.666707 7.05558 0.333374 7.55558 0.333374C8.05558 0.333374 8.38892 0.666707 8.38892 1.16671V6.16671H13.3889C13.8889 6.16671 14.2222 6.50004 14.2222 7.00004Z" fill="#263238"/>
</svg>
