<svg width="24" height="24" viewBox="0 0 24 24" fill="none" xmlns="http://www.w3.org/2000/svg">
<path d="M16.7055 12H17.8722C18.1944 12 18.4555 11.7388 18.4555 11.4167C18.4555 11.0945 18.1944 10.8333 17.8722 10.8333H16.7055C16.3834 10.8333 16.1222 11.0945 16.1222 11.4167C16.1222 11.7388 16.3834 12 16.7055 12ZM16.7055 15.5H17.8722C18.1944 15.5 18.4555 15.2388 18.4555 14.9167C18.4555 14.5945 18.1944 14.3333 17.8722 14.3333H16.7055C16.3834 14.3333 16.1222 14.5945 16.1222 14.9167C16.1222 15.2388 16.3834 15.5 16.7055 15.5ZM21.3722 5C20.8387 5 2.86441 5 2.62777 5C2.30561 5 2.04443 5.26118 2.04443 5.58333C2.04443 5.90549 2.30561 6.16667 2.62777 6.16667H3.2111V18.4167C3.2111 18.7388 3.47228 19 3.79443 19C4.11659 19 4.37777 18.7388 4.37777 18.4167V9.66667H13.7889V18.4167C13.7889 18.7388 14.0501 19 14.3722 19C14.6944 19 14.9555 18.7388 14.9555 18.4167V17.8333H19.6222V18.4167C19.6222 18.7388 19.8834 19 20.2055 19C20.5277 19 20.7889 18.7388 20.7889 18.4167V6.16667H21.3722C21.6944 6.16667 21.9555 5.90549 21.9555 5.58333C21.9555 5.26118 21.6944 5 21.3722 5ZM19.6222 16.6667H14.9555V9.66667H19.6222V16.6667ZM19.6222 8.5C19.068 8.5 5.13524 8.5 4.37777 8.5V6.16667H19.6222V8.5Z" fill="#165153"/>
<path fill-rule="evenodd" clip-rule="evenodd" d="M17.8722 12.1004H16.7056C16.3282 12.1004 16.0222 11.7944 16.0222 11.4171C16.0222 11.0397 16.3282 10.7337 16.7056 10.7337H17.8722C18.2496 10.7337 18.5556 11.0397 18.5556 11.4171C18.5556 11.7944 18.2496 12.1004 17.8722 12.1004ZM17.8722 15.6004H16.7056C16.3282 15.6004 16.0222 15.2944 16.0222 14.9171C16.0222 14.5397 16.3282 14.2337 16.7056 14.2337H17.8722C18.2496 14.2337 18.5556 14.5397 18.5556 14.9171C18.5556 15.2944 18.2496 15.6004 17.8722 15.6004ZM21.3722 4.90039C21.7496 4.90039 22.0556 5.20634 22.0556 5.58372C22.0556 5.96111 21.7496 6.26706 21.3722 6.26706H20.8889V18.4171C20.8889 18.7944 20.583 19.1004 20.2056 19.1004C19.8282 19.1004 19.5222 18.7944 19.5222 18.4171V17.9337H15.0556V18.4171C15.0556 18.7944 14.7496 19.1004 14.3722 19.1004C13.9949 19.1004 13.6889 18.7944 13.6889 18.4171V9.76706H4.47779V18.4171C4.47779 18.7944 4.17184 19.1004 3.79446 19.1004C3.41707 19.1004 3.11112 18.7944 3.11112 18.4171V6.26706H2.62779C2.25041 6.26706 1.94446 5.96111 1.94446 5.58372C1.94446 5.20634 2.25041 4.90039 2.62779 4.90039H21.3722ZM15.0556 16.5671H19.5222V9.76706H15.0556V16.5671ZM19.5222 8.40039V6.26706H4.47779V8.40039H19.5222ZM17.8722 12.0004H16.7056C16.3834 12.0004 16.1222 11.7392 16.1222 11.4171C16.1222 11.0949 16.3834 10.8337 16.7056 10.8337H17.8722C18.1944 10.8337 18.4556 11.0949 18.4556 11.4171C18.4556 11.7392 18.1944 12.0004 17.8722 12.0004ZM17.8722 15.5004H16.7056C16.3834 15.5004 16.1222 15.2392 16.1222 14.9171C16.1222 14.5949 16.3834 14.3337 16.7056 14.3337H17.8722C18.1944 14.3337 18.4556 14.5949 18.4556 14.9171C18.4556 15.2392 18.1944 15.5004 17.8722 15.5004ZM2.62779 5.00039H21.3722C21.6944 5.00039 21.9556 5.26157 21.9556 5.58372C21.9556 5.90588 21.6944 6.16706 21.3722 6.16706H20.7889V18.4171C20.7889 18.7392 20.5277 19.0004 20.2056 19.0004C19.8834 19.0004 19.6222 18.7392 19.6222 18.4171V17.8337H14.9556V18.4171C14.9556 18.7392 14.6944 19.0004 14.3722 19.0004C14.0501 19.0004 13.7889 18.7392 13.7889 18.4171V9.66706H4.37779V18.4171C4.37779 18.7392 4.11661 19.0004 3.79446 19.0004C3.4723 19.0004 3.21112 18.7392 3.21112 18.4171V6.16706H2.62779C2.30564 6.16706 2.04446 5.90588 2.04446 5.58372C2.04446 5.26157 2.30564 5.00039 2.62779 5.00039ZM19.6222 16.6671V9.66706H14.9556V16.6671H19.6222ZM19.6222 8.50039V6.16706H4.37779V8.50039H19.6222Z" fill="#165153"/>
</svg>
