<svg width="20" height="20" viewBox="0 0 20 20" fill="none" xmlns="http://www.w3.org/2000/svg">
<path d="M19.4128 18.799H19.2264V11.6459C19.2264 11.3225 18.9643 11.0604 18.6409 11.0604H15.0276V0.585482C15.0276 0.26214 14.7655 0 14.4421 0H5.54662C5.22328 0 4.96114 0.26214 4.96114 0.585482V4.42121H1.34778C1.02444 4.42121 0.762297 4.68335 0.762297 5.00669V18.799H0.585482C0.26214 18.799 0 19.0612 0 19.3845C0 19.7079 0.26214 19.97 0.585482 19.97H19.4128C19.7362 19.97 19.9983 19.7079 19.9983 19.3845C19.9983 19.0612 19.7362 18.799 19.4128 18.799ZM18.0554 12.2313V13.7708H15.0276V12.2313H18.0554ZM4.96114 11.6101H1.93326V9.08172H4.9611V11.6101H4.96114ZM1.93326 12.7811H4.9611V15.3094H1.93326V12.7811ZM4.96114 5.59213V7.91072H1.93326V5.59213H4.96114ZM1.93326 16.4804H4.9611V18.799H1.93326V16.4804ZM6.1321 1.17096H13.8566V18.799H12.6171V15.5152C12.6171 15.1918 12.3549 14.9297 12.0316 14.9297H7.95716C7.63382 14.9297 7.37168 15.1918 7.37168 15.5152V18.799H6.1321V1.17096ZM8.54265 18.799V16.1006H11.446V18.799H8.54265ZM15.0276 18.799V14.9417H18.0554V18.799H15.0276Z" fill="#165153"/>
<path d="M7.88822 3.5528H12.1021C12.4255 3.5528 12.6876 3.29066 12.6876 2.96732C12.6876 2.64398 12.4255 2.38184 12.1021 2.38184H7.88822C7.56487 2.38184 7.30273 2.64398 7.30273 2.96732C7.30273 3.29066 7.56487 3.5528 7.88822 3.5528Z" fill="#165153"/>
<path d="M7.88822 6.02912H12.1021C12.4255 6.02912 12.6876 5.76698 12.6876 5.44364C12.6876 5.12029 12.4255 4.85815 12.1021 4.85815H7.88822C7.56487 4.85815 7.30273 5.12029 7.30273 5.44364C7.30273 5.76698 7.56487 6.02912 7.88822 6.02912Z" fill="#165153"/>
<path d="M7.88822 8.50543H12.1021C12.4255 8.50543 12.6876 8.24329 12.6876 7.91995C12.6876 7.59661 12.4255 7.33447 12.1021 7.33447H7.88822C7.56487 7.33447 7.30273 7.59661 7.30273 7.91995C7.30273 8.24329 7.56487 8.50543 7.88822 8.50543Z" fill="#165153"/>
<path d="M7.88822 10.9818H12.1021C12.4255 10.9818 12.6876 10.7196 12.6876 10.3963C12.6876 10.0729 12.4255 9.81079 12.1021 9.81079H7.88822C7.56487 9.81079 7.30273 10.0729 7.30273 10.3963C7.30273 10.7196 7.56487 10.9818 7.88822 10.9818Z" fill="#165153"/>
<path d="M7.88822 13.4583H12.1021C12.4255 13.4583 12.6876 13.1962 12.6876 12.8728C12.6876 12.5495 12.4255 12.2874 12.1021 12.2874H7.88822C7.56487 12.2874 7.30273 12.5495 7.30273 12.8728C7.30273 13.1962 7.56487 13.4583 7.88822 13.4583Z" fill="#165153"/>
</svg>
